<?xml version="1.0" standalone="no"?>
<!DOCTYPE svg PUBLIC "-//W3C//DTD SVG 20010904//EN"
 "http://www.w3.org/TR/2001/REC-SVG-20010904/DTD/svg10.dtd">
<svg version="1.0" xmlns="http://www.w3.org/2000/svg"
 width="200.000000pt" height="200.000000pt" viewBox="0 0 200.000000 200.000000"
 preserveAspectRatio="xMidYMid meet">
<metadata>
Created by potrace 1.11, written by Peter Selinger 2001-2013
</metadata>
<g transform="translate(0.000000,200.000000) scale(0.100000,-0.100000)"
fill="#000000" stroke="none">
<path d="M978 1503 c-22 -9 -38 -23 -42 -37 -6 -24 23 -94 46 -114 19 -16 59
-21 85 -11 30 11 62 65 55 92 -18 70 -74 98 -144 70z"/>
<path d="M273 1500 c-104 -21 -134 -64 -139 -203 -5 -120 -17 -160 -61 -196
-19 -16 -42 -27 -49 -24 -8 3 -14 -1 -15 -8 -5 -71 -4 -112 3 -122 4 -7 8 -8
8 -4 0 8 55 -27 75 -48 24 -24 35 -65 39 -145 7 -119 14 -149 50 -197 33 -45
63 -57 151 -58 l40 0 3 61 3 61 -39 11 c-61 19 -67 31 -69 156 -2 117 -7 139
-48 195 -14 19 -21 37 -17 40 29 19 62 142 75 280 5 50 41 91 81 91 20 0 23 5
25 49 3 69 -18 80 -116 61z"/>
<path d="M1622 1498 c-7 -7 -12 -34 -12 -61 0 -39 3 -48 14 -44 8 3 30 -4 48
-16 34 -23 36 -31 53 -152 12 -95 27 -150 46 -178 23 -32 22 -55 -4 -79 -28
-26 -44 -95 -42 -183 1 -46 -3 -93 -11 -112 -7 -17 -10 -34 -7 -36 2 -3 -2 -5
-9 -4 -31 1 -77 -16 -80 -32 -2 -9 -2 -38 0 -64 l4 -48 52 2 c28 1 65 7 81 12
33 11 67 46 58 61 -3 5 -1 6 5 2 23 -14 40 59 46 194 4 102 33 154 99 179 26
10 27 14 27 76 0 36 -3 64 -7 63 -22 -7 -72 27 -92 62 -17 30 -22 59 -25 142
-5 114 -15 151 -51 184 -39 36 -168 57 -193 32z"/>
<path d="M874 1266 c2 -17 0 -43 -5 -59 -9 -31 -6 -33 56 -41 22 -3 40 -5 40
-6 3 -4 -5 -327 -9 -384 -5 -67 -10 -82 -32 -102 -14 -13 -43 -27 -64 -30 -34
-6 -40 -10 -41 -33 -1 -14 -2 -45 -3 -68 -2 -47 3 -51 64 -54 81 -3 168 22
205 59 56 56 56 58 59 403 1 233 -1 323 -10 330 -6 5 -68 11 -137 13 l-127 3
4 -31z"/>
</g>
</svg>
